<svg width="32" height="32" viewBox="0 0 32 32" fill="none" xmlns="http://www.w3.org/2000/svg">
<g opacity="0.5">
<path d="M12.5296 2.43237C10.1439 3.04318 7.96139 4.2724 6.20239 5.99602C4.44338 7.71964 3.17006 9.87669 2.5109 12.2496C1.85173 14.6224 1.83004 17.1272 2.448 19.5111C3.06596 21.895 4.30173 24.0738 6.03062 25.8276C7.7595 27.5814 9.92037 28.8483 12.2952 29.5003C14.67 30.1524 17.1748 30.1666 19.5569 29.5414C21.9389 28.9163 24.114 27.674 25.8626 25.9399C27.6113 24.2057 28.8716 22.0411 29.5165 19.6643" stroke="#8E8E93" stroke-width="2.24" stroke-linecap="round" stroke-linejoin="round"/>
<path fill-rule="evenodd" clip-rule="evenodd" d="M30.0006 16.0026C30.0006 12.2889 28.5254 8.72726 25.8994 6.10127C23.2734 3.47527 19.7118 2 15.998 2V16.0026H30.0006Z" stroke="#8E8E93" stroke-width="2.24" stroke-linecap="round" stroke-linejoin="round"/>
</g>
</svg>
